# xmcd
#
# Track frame offsets: 
#        150
#        15546
#        30934
#        46321
#        64073
#
# Disc length: 1089 seconds
#
# Revision: 0
# Processed by: cddbd v1.5.2PL0 Copyright (c) Steve Scherf et al.
# Submitted via: ExactAudioCopy v0.99pb4
#
DISCID=31043f05
DTITLE=E-40 - U and Dat [CDS)
DYEAR=2006
DGENRE=Hip-Hop
TTITLE0=U and Dat (ft. T-Pain and Kandi Girl) (Clean)
TTITLE1=U and Dat (ft. T-Pain and Kandi Girl)
TTITLE2=U and Dat (Instrumental)
TTITLE3=Yay Area (Radio)
TTITLE4=Yay Area
EXTD=
EXTT0=
EXTT1=
EXTT2=
EXTT3=
EXTT4=
PLAYORDER=
